<?xml version="1.0" encoding="UTF-8"?>
<svg width="200px" height="200px" viewBox="0 0 200 200" version="1.1" xmlns="http://www.w3.org/2000/svg" xmlns:xlink="http://www.w3.org/1999/xlink">
    <!-- Generator: Sketch 61.2 (89653) - https://sketch.com -->
    <title>weight4</title>
    <desc>Created with Sketch.</desc>
    <g id="weight4" stroke="none" stroke-width="1" fill="none" fill-rule="evenodd">
        <rect id="Rectangle" stroke="#FFFFFF" stroke-width="8" fill="#FFFFFF" x="98" y="16" width="4" height="178"></rect>
        <path d="M19.5666435,19.1816879 C17.5331203,18.3185086 15.1848789,19.2672597 14.3216995,21.3007828 C13.4585202,23.334306 14.4072713,25.6825474 16.4407944,26.5457268 L183.052173,97.268061 C185.085696,98.1312404 187.433937,97.1824893 188.297117,95.1489661 C189.160296,93.115443 188.211545,90.7672016 186.178022,89.9040222 L19.5666435,19.1816879 Z" id="Rectangle" stroke="#FFFFFF" fill="#FFFFFF"></path>
        <circle id="Oval" stroke="#FFFFFF" stroke-width="8" fill="#FFFFFF" cx="100" cy="58" r="14"></circle>
        <path d="M100,2.04416367 L94.8422711,11.5 L105.157729,11.5 L100,2.04416367 Z" id="Triangle" stroke="#FFFFFF" fill="#FFFFFF"></path>
        <g id="scale" transform="translate(0.000000, 27.000000)" stroke="#FFFFFF">
            <path d="M17,14.0477744 L2.9926826,91.5 L31.0073174,91.5 L17,14.0477744 Z" id="Triangle" stroke-width="5" fill="#5C5C5C"></path>
            <path d="M0.818056981,94.3621134 C1.97829114,96.5639091 3.65059659,98.1529403 5.83497332,99.1292071 C7.21110713,99.7442446 8.40540427,100.236531 9.73618086,100.600686 C11.5739741,101.103582 13.672053,101.362113 16.8687826,101.362113 C19.0515134,101.362113 20.666766,101.286939 22.0474652,101.081782 C24.1531196,100.768905 25.7132451,100.153712 27.9087342,99.0417956 C30.3321301,97.8144548 32.0854879,96.2545608 33.1688075,94.3621134 L0.818056981,94.3621134 Z" id="Path-2" stroke-width="1" fill="#FFFFFF"></path>
        </g>
        <g id="scale" transform="translate(166.000000, 98.000000)" stroke="#FFFFFF">
            <path d="M17,14.0477744 L2.9926826,91.5 L31.0073174,91.5 L17,14.0477744 Z" id="Triangle" stroke-width="5" fill="#5C5C5C"></path>
            <path d="M0.818056981,94.3621134 C1.97829114,96.5639091 3.65059659,98.1529403 5.83497332,99.1292071 C7.21110713,99.7442446 8.40540427,100.236531 9.73618086,100.600686 C11.5739741,101.103582 13.672053,101.362113 16.8687826,101.362113 C19.0515134,101.362113 20.666766,101.286939 22.0474652,101.081782 C24.1531196,100.768905 25.7132451,100.153712 27.9087342,99.0417956 C30.3321301,97.8144548 32.0854879,96.2545608 33.1688075,94.3621134 L0.818056981,94.3621134 Z" id="Path-2" stroke-width="1" fill="#FFFFFF"></path>
        </g>
        <path d="M182.510731,126.180375 C182.510731,126.180375 186.01349,140.645024 193.019008,169.574323 L197.021463,186.90429 L168,186.90429 C177.673821,146.42168 182.510731,126.180375 182.510731,126.180375 Z" id="Path-2" stroke="#FFFFFF" fill="#FFFFFF"></path>
        <path d="M100,189.530545 L71.9042622,199.5 L128.095738,199.5 L100,189.530545 Z" id="Triangle" stroke="#FFFFFF" fill="#FFFFFF"></path>
    </g>
</svg>