<?xml version="1.0" encoding="UTF-8"?>
<svg width="200px" height="200px" viewBox="0 0 200 200" version="1.1" xmlns="http://www.w3.org/2000/svg" xmlns:xlink="http://www.w3.org/1999/xlink">
    <!-- Generator: Sketch 61.2 (89653) - https://sketch.com -->
    <title>weight2</title>
    <desc>Created with Sketch.</desc>
    <g id="weight2" stroke="none" stroke-width="1" fill="none" fill-rule="evenodd">
        <rect id="Rectangle" stroke="#FFFFFF" stroke-width="8" fill="#FFFFFF" x="98" y="16" width="4" height="178"></rect>
        <rect id="Rectangle" stroke="#FFFFFF" fill="#FFFFFF" transform="translate(100.839137, 58.053696) rotate(10.000000) translate(-100.839137, -58.053696) " x="12.8391373" y="54.0536957" width="176" height="8" rx="4"></rect>
        <circle id="Oval" stroke="#FFFFFF" stroke-width="8" fill="#FFFFFF" cx="100" cy="58" r="14"></circle>
        <path d="M100,2.04416367 L94.8422711,11.5 L105.157729,11.5 L100,2.04416367 Z" id="Triangle" stroke="#FFFFFF" fill="#FFFFFF"></path>
        <g id="scale" transform="translate(0.000000, 48.000000)" stroke="#FFFFFF">
            <path d="M17,14.0477744 L2.9926826,91.5 L31.0073174,91.5 L17,14.0477744 Z" id="Triangle" stroke-width="5" fill="#5C5C5C"></path>
            <path d="M0.818056981,94.3621134 C1.97829114,96.5639091 3.65059659,98.1529403 5.83497332,99.1292071 C7.21110713,99.7442446 8.40540427,100.236531 9.73618086,100.600686 C11.5739741,101.103582 13.672053,101.362113 16.8687826,101.362113 C19.0515134,101.362113 20.666766,101.286939 22.0474652,101.081782 C24.1531196,100.768905 25.7132451,100.153712 27.9087342,99.0417956 C30.3321301,97.8144548 32.0854879,96.2545608 33.1688075,94.3621134 L0.818056981,94.3621134 Z" id="Path-2" stroke-width="1" fill="#FFFFFF"></path>
        </g>
        <g id="scale" transform="translate(166.000000, 77.000000)" stroke="#FFFFFF">
            <path d="M17,14.0477744 L2.9926826,91.5 L31.0073174,91.5 L17,14.0477744 Z" id="Triangle" stroke-width="5" fill="#5C5C5C"></path>
            <path d="M0.818056981,94.3621134 C1.97829114,96.5639091 3.65059659,98.1529403 5.83497332,99.1292071 C7.21110713,99.7442446 8.40540427,100.236531 9.73618086,100.600686 C11.5739741,101.103582 13.672053,101.362113 16.8687826,101.362113 C19.0515134,101.362113 20.666766,101.286939 22.0474652,101.081782 C24.1531196,100.768905 25.7132451,100.153712 27.9087342,99.0417956 C30.3321301,97.8144548 32.0854879,96.2545608 33.1688075,94.3621134 L0.818056981,94.3621134 Z" id="Path-2" stroke-width="1" fill="#FFFFFF"></path>
        </g>
        <path d="M172.313016,149.90429 C172.313016,149.90429 179.215014,149.90429 193.019008,149.90429 L197.021463,171.90429 L168,171.90429 C170.875344,157.237624 172.313016,149.90429 172.313016,149.90429 Z" id="Path-2" stroke="#FFFFFF" fill="#FFFFFF"></path>
        <path d="M100,189.530545 L71.9042622,199.5 L128.095738,199.5 L100,189.530545 Z" id="Triangle" stroke="#FFFFFF" fill="#FFFFFF"></path>
    </g>
</svg>